<svg width="1929" height="264" viewBox="0 0 1929 264" fill="none" xmlns="http://www.w3.org/2000/svg">
<path fill-rule="evenodd" clip-rule="evenodd" d="M1085 131.009C1084.5 26.506 1133.7 0.424362 1202 1.00936C1269.78 1.58991 1318.5 28.0062 1317 131.009C1315.5 234.013 1270.37 262.425 1202 263.009C1133.12 263.598 1085.5 235.513 1085 131.009ZM1202 73.0062C1226.5 73.006 1229.5 80.5063 1229.5 131.509L1229.5 132.915L1229.5 134.625C1229.52 183.124 1229.52 197.479 1202 198.006C1173.68 198.549 1173 177.012 1173 131.506C1173 86.0001 1177.5 73.0063 1202 73.0062ZM16 71.9998L1 4.99981H120L145 121L175 4.99981H252L284 121L306 4.99981H383L330 259H233L212 157L194 259H97L58 86.9998L98 71.9998H16ZM415 4.99981L362 259H444L453 220H498L506 259H592L539 4.99981H415ZM475 81.9998L458 167H492L475 81.9998ZM589 71.9998L574 4.99981H733C797.023 12.8628 815.825 30.9362 817 88.9998C814.923 123.533 807.555 136.951 784 151L822 259H732L706.746 171H700V259H616V86.9998L661 71.9998H589ZM698 122V71.9998H715C723.134 77.237 725.768 82.1311 726 96.4998C726.107 111.994 723.66 117.741 715 122H698ZM830 4.99981L845 71.9998H917L872 86.9998V259H958V179.5C1053 181.5 1072.32 151.815 1073 88.9998C1071.83 30.9362 1053.02 12.8628 989 4.99981H830ZM956 71.9998V122H973C981.66 117.741 984.107 111.994 984 96.4998C983.768 82.1311 981.134 77.237 973 71.9998H956ZM1430 4.99981H1344V259H1430V92.9998L1365 73.9998H1430V4.99981ZM1463 4.99981H1557L1608 108V4.99981H1928L1901 73.9998H1841V259H1755V73.9998H1643L1693 86.9998V259H1602L1548 159V259H1463V4.99981Z" fill="white"/>
<path d="M1202 1.00936L1202.01 0.509383L1202 1.00936ZM1085 131.009L1085.5 131.007L1085 131.009ZM1317 131.009L1316.5 131.002L1317 131.009ZM1202 263.009L1202.01 263.509L1202.01 263.509L1202 263.009ZM1229.5 131.509L1229 131.509L1229 131.509L1229.5 131.509ZM1229.5 132.915L1229 132.915L1229 132.915L1229.5 132.915ZM1229.5 134.625L1229 134.625L1229 134.625L1229.5 134.625ZM1202 198.006L1202.01 198.506L1202.01 198.506L1202 198.006ZM1 4.99981V4.49981H0.375682L0.512078 5.10904L1 4.99981ZM16 71.9998L15.5121 72.109L15.5996 72.4998H16V71.9998ZM120 4.99981L120.489 4.89447L120.404 4.49981H120V4.99981ZM145 121L144.511 121.105L145.484 121.125L145 121ZM175 4.99981V4.49981H174.613L174.516 4.87462L175 4.99981ZM252 4.99981L252.482 4.86684L252.381 4.49981H252V4.99981ZM284 121L283.518 121.133L284.491 121.093L284 121ZM306 4.99981V4.49981H305.586L305.509 4.90664L306 4.99981ZM383 4.99981L383.489 5.10194L383.615 4.49981H383V4.99981ZM330 259V259.5H330.406L330.489 259.102L330 259ZM233 259L232.51 259.101L232.592 259.5H233V259ZM212 157L212.49 156.899L211.508 156.913L212 157ZM194 259V259.5H194.419L194.492 259.087L194 259ZM97 259L96.5124 259.11L96.6007 259.5H97V259ZM58 86.9998L57.8244 86.5316L57.4159 86.6848L57.5124 87.1104L58 86.9998ZM98 71.9998L98.1756 72.468L98 71.4998V71.9998ZM362 259L361.511 258.898L361.385 259.5H362V259ZM415 4.99981V4.49981H414.594L414.511 4.89768L415 4.99981ZM444 259V259.5H444.398L444.487 259.112L444 259ZM453 220V219.5H452.602L452.513 219.887L453 220ZM498 220L498.49 219.899L498.408 219.5H498V220ZM506 259L505.51 259.1L505.592 259.5H506V259ZM592 259V259.5H592.615L592.489 258.898L592 259ZM539 4.99981L539.489 4.89768L539.406 4.49981H539V4.99981ZM458 167L457.51 166.902L457.39 167.5H458V167ZM475 81.9998L475.49 81.9018H474.51L475 81.9998ZM492 167V167.5H492.61L492.49 166.902L492 167ZM574 4.99981V4.49981H573.376L573.512 5.10904L574 4.99981ZM589 71.9998L588.512 72.109L588.6 72.4998H589V71.9998ZM733 4.99981L733.061 4.50354L733.031 4.49981H733V4.99981ZM817 88.9998L817.499 89.0298L817.5 89.0098L817.5 88.9897L817 88.9998ZM784 151L783.744 150.57L783.393 150.78L783.528 151.166L784 151ZM822 259V259.5H822.706L822.472 258.834L822 259ZM732 259L731.519 259.138L731.623 259.5H732V259ZM706.746 171L707.227 170.862L707.123 170.5H706.746V171ZM700 171V170.5H699.5V171H700ZM700 259V259.5H700.5V259H700ZM616 259H615.5V259.5H616V259ZM616 86.9998L615.842 86.5255L615.5 86.6394V86.9998H616ZM661 71.9998L661.158 72.4742L661 71.4998V71.9998ZM698 71.9998V71.4998H697.5V71.9998H698ZM698 122H697.5V122.5H698V122ZM715 71.9998L715.271 71.5794L715.147 71.4998H715V71.9998ZM726 96.4998L726.5 96.4964L726.5 96.4917L726 96.4998ZM715 122V122.5H715.116L715.221 122.448L715 122ZM845 71.9998L844.512 72.109L844.6 72.4998H845V71.9998ZM830 4.99981V4.49981H829.376L829.512 5.10904L830 4.99981ZM917 71.9998L917.158 72.4742L917 71.4998V71.9998ZM872 86.9998L871.842 86.5255L871.5 86.6394V86.9998H872ZM872 259H871.5V259.5H872V259ZM958 259V259.5H958.5V259H958ZM958 179.5L958.011 179L957.5 178.989V179.5H958ZM1073 88.9998L1073.5 89.0052L1073.5 88.9975L1073.5 88.9897L1073 88.9998ZM989 4.99981L989.061 4.50354L989.031 4.49981H989V4.99981ZM956 122H955.5V122.5H956V122ZM956 71.9998V71.4998H955.5V71.9998H956ZM973 122V122.5H973.116L973.221 122.448L973 122ZM984 96.4998L984.5 96.4964L984.5 96.4917L984 96.4998ZM973 71.9998L973.271 71.5794L973.147 71.4998H973V71.9998ZM1344 4.99981V4.49981H1343.5V4.99981H1344ZM1430 4.99981H1430.5V4.49981H1430V4.99981ZM1344 259H1343.5V259.5H1344V259ZM1430 259V259.5H1430.5V259H1430ZM1430 92.9998H1430.5V92.625L1430.14 92.5199L1430 92.9998ZM1365 73.9998V73.4998L1364.86 74.4797L1365 73.9998ZM1430 73.9998V74.4998H1430.5V73.9998H1430ZM1557 4.99981L1557.45 4.77794L1557.31 4.49981H1557V4.99981ZM1463 4.99981V4.49981H1462.5V4.99981H1463ZM1608 108L1607.55 108.222L1608.5 108H1608ZM1608 4.99981V4.49981H1607.5V4.99981H1608ZM1928 4.99981L1928.47 5.18201L1928.73 4.49981H1928V4.99981ZM1901 73.9998V74.4998H1901.34L1901.47 74.182L1901 73.9998ZM1841 73.9998V73.4998H1840.5V73.9998H1841ZM1841 259V259.5H1841.5V259H1841ZM1755 259H1754.5V259.5H1755V259ZM1755 73.9998H1755.5V73.4998H1755V73.9998ZM1643 73.9998V73.4998L1642.87 74.4837L1643 73.9998ZM1693 86.9998H1693.5V86.6132L1693.13 86.5159L1693 86.9998ZM1693 259V259.5H1693.5V259H1693ZM1602 259L1601.56 259.237L1601.7 259.5H1602V259ZM1548 159L1548.44 158.762L1547.5 159H1548ZM1548 259V259.5H1548.5V259H1548ZM1463 259H1462.5V259.5H1463V259ZM1202.01 0.509383C1167.81 0.21646 1138.28 6.59602 1117.36 26.2367C1096.44 45.882 1084.25 78.6929 1084.5 131.012L1085.5 131.007C1085.25 78.8224 1097.42 46.3409 1118.05 26.9657C1138.68 7.58601 1167.9 1.21727 1202 1.50935L1202.01 0.509383ZM1317.5 131.017C1318.25 79.4462 1306.44 46.9271 1285.83 27.2393C1265.23 7.5571 1235.95 0.800073 1202.01 0.509383L1202 1.50935C1235.84 1.7992 1264.81 8.54057 1285.14 27.9624C1305.46 47.3787 1317.25 79.5693 1316.5 131.002L1317.5 131.017ZM1202.01 263.509C1236.25 263.217 1264.78 255.956 1284.93 235.77C1305.08 215.586 1316.75 182.577 1317.5 131.017L1316.5 131.002C1315.75 182.444 1304.11 215.144 1284.22 235.063C1264.34 254.98 1236.13 262.218 1202 262.509L1202.01 263.509ZM1084.5 131.012C1084.75 183.327 1096.8 216.633 1117.51 236.777C1138.23 256.922 1167.51 263.804 1202.01 263.509L1202 262.509C1167.61 262.803 1138.65 255.938 1118.21 236.061C1097.77 216.183 1085.75 183.195 1085.5 131.007L1084.5 131.012ZM1230 131.509C1230 118.758 1229.82 108.708 1229.15 100.809C1228.49 92.9181 1227.34 87.1282 1225.4 82.9218C1223.44 78.6887 1220.68 76.0618 1216.82 74.5111C1213 72.9732 1208.14 72.5061 1202 72.5062L1202 73.5062C1208.12 73.5061 1212.82 73.9765 1216.45 75.4387C1220.05 76.8881 1222.63 79.3239 1224.49 83.3413C1226.36 87.3854 1227.49 93.0336 1228.15 100.893C1228.82 108.746 1229 118.759 1229 131.509H1230ZM1230 132.915L1230 131.509L1229 131.509L1229 132.915L1230 132.915ZM1230 134.625L1230 132.915L1229 132.915L1229 134.625L1230 134.625ZM1202.01 198.506C1208.93 198.374 1214.18 197.374 1218.16 195.136C1222.15 192.888 1224.8 189.419 1226.55 184.472C1228.29 179.543 1229.15 173.126 1229.58 164.941C1230.01 156.751 1230.01 146.745 1230 134.625L1229 134.625C1229.01 146.755 1229.01 156.731 1228.58 164.889C1228.16 173.052 1227.3 179.35 1225.61 184.139C1223.92 188.908 1221.41 192.159 1217.67 194.265C1213.9 196.383 1208.84 197.375 1201.99 197.506L1202.01 198.506ZM1172.5 131.506C1172.5 142.88 1172.55 152.774 1173.05 161.201C1173.56 169.625 1174.53 176.619 1176.41 182.184C1178.29 187.758 1181.08 191.929 1185.25 194.662C1189.41 197.39 1194.87 198.643 1202.01 198.506L1201.99 197.506C1194.97 197.641 1189.73 196.405 1185.8 193.826C1181.87 191.25 1179.19 187.295 1177.36 181.865C1175.52 176.426 1174.56 169.537 1174.05 161.141C1173.55 152.749 1173.5 142.885 1173.5 131.506H1172.5ZM1202 72.5062C1195.84 72.5062 1190.88 73.3219 1186.91 75.3002C1182.93 77.2862 1180 80.4229 1177.86 84.9793C1175.74 89.521 1174.4 95.475 1173.59 103.115C1172.78 110.759 1172.5 120.125 1172.5 131.506H1173.5C1173.5 120.135 1173.79 110.811 1174.59 103.22C1175.39 95.6254 1176.71 89.7986 1178.77 85.4036C1180.82 81.0233 1183.61 78.0674 1187.36 76.195C1191.13 74.3148 1195.92 73.5062 1202 73.5062L1202 72.5062ZM0.512078 5.10904L15.5121 72.109L16.4879 71.8906L1.48792 4.89057L0.512078 5.10904ZM120 4.49981H1V5.49981H120V4.49981ZM145.489 120.894L120.489 4.89447L119.511 5.10515L144.511 121.105L145.489 120.894ZM174.516 4.87462L144.516 120.875L145.484 121.125L175.484 5.125L174.516 4.87462ZM252 4.49981H175V5.49981H252V4.49981ZM284.482 120.867L252.482 4.86684L251.518 5.13277L283.518 121.133L284.482 120.867ZM305.509 4.90664L283.509 120.907L284.491 121.093L306.491 5.09297L305.509 4.90664ZM383 4.49981H306V5.49981H383V4.49981ZM330.489 259.102L383.489 5.10194L382.511 4.89768L329.511 258.898L330.489 259.102ZM233 259.5H330V258.5H233V259.5ZM211.51 157.101L232.51 259.101L233.49 258.899L212.49 156.899L211.51 157.101ZM194.492 259.087L212.492 157.087L211.508 156.913L193.508 258.913L194.492 259.087ZM97 259.5H194V258.5H97V259.5ZM57.5124 87.1104L96.5124 259.11L97.4876 258.889L58.4876 86.8892L57.5124 87.1104ZM97.8244 71.5316L57.8244 86.5316L58.1756 87.468L98.1756 72.468L97.8244 71.5316ZM16 72.4998H98V71.4998H16V72.4998ZM362.489 259.102L415.489 5.10194L414.511 4.89768L361.511 258.898L362.489 259.102ZM444 258.5H362V259.5H444V258.5ZM452.513 219.887L443.513 258.887L444.487 259.112L453.487 220.112L452.513 219.887ZM498 219.5H453V220.5H498V219.5ZM506.49 258.899L498.49 219.899L497.51 220.1L505.51 259.1L506.49 258.899ZM592 258.5H506V259.5H592V258.5ZM538.511 5.10194L591.511 259.102L592.489 258.898L539.489 4.89768L538.511 5.10194ZM415 5.49981H539V4.49981H415V5.49981ZM458.49 167.098L475.49 82.0979L474.51 81.9018L457.51 166.902L458.49 167.098ZM492 166.5H458V167.5H492V166.5ZM474.51 82.0979L491.51 167.098L492.49 166.902L475.49 81.9018L474.51 82.0979ZM573.512 5.10904L588.512 72.109L589.488 71.8906L574.488 4.89057L573.512 5.10904ZM733 4.49981H574V5.49981H733V4.49981ZM817.5 88.9897C816.912 59.9264 811.915 40.7217 798.921 27.8198C785.942 14.9331 765.083 8.43637 733.061 4.50354L732.939 5.49608C764.94 9.42625 785.494 15.8977 798.216 28.5294C810.922 41.1458 815.913 60.0097 816.5 89.0099L817.5 88.9897ZM784.256 151.429C796.074 144.381 803.889 137.456 808.995 127.918C814.093 118.393 816.459 106.317 817.499 89.0298L816.501 88.9698C815.464 106.216 813.107 118.116 808.113 127.446C803.127 136.762 795.48 143.57 783.744 150.57L784.256 151.429ZM822.472 258.834L784.472 150.834L783.528 151.166L821.528 259.166L822.472 258.834ZM732 259.5H822V258.5H732V259.5ZM706.266 171.138L731.519 259.138L732.481 258.862L707.227 170.862L706.266 171.138ZM700 171.5H706.746V170.5H700V171.5ZM700.5 259V171H699.5V259H700.5ZM616 259.5H700V258.5H616V259.5ZM615.5 86.9998V259H616.5V86.9998H615.5ZM660.842 71.5255L615.842 86.5255L616.158 87.4742L661.158 72.4742L660.842 71.5255ZM589 72.4998H661V71.4998H589V72.4998ZM697.5 71.9998V122H698.5V71.9998H697.5ZM715 71.4998H698V72.4998H715V71.4998ZM726.5 96.4917C726.384 89.291 725.667 84.388 723.917 80.6151C722.157 76.8212 719.379 74.2245 715.271 71.5794L714.729 72.4202C718.755 75.0123 721.361 77.4813 723.01 81.0359C724.668 84.6115 725.384 89.34 725.5 96.5079L726.5 96.4917ZM715.221 122.448C719.625 120.283 722.506 117.706 724.247 113.661C725.972 109.653 726.554 104.253 726.5 96.4964L725.5 96.5033C725.553 104.241 724.965 109.462 723.328 113.266C721.707 117.032 719.036 119.458 714.779 121.551L715.221 122.448ZM698 122.5H715V121.5H698V122.5ZM845.488 71.8906L830.488 4.89057L829.512 5.10904L844.512 72.109L845.488 71.8906ZM917 71.4998H845V72.4998H917V71.4998ZM872.158 87.4742L917.158 72.4742L916.842 71.5255L871.842 86.5255L872.158 87.4742ZM872.5 259V86.9998H871.5V259H872.5ZM958 258.5H872V259.5H958V258.5ZM957.5 179.5V259H958.5V179.5H957.5ZM1072.5 88.9944C1072.16 120.381 1067.16 143.311 1050.54 158.183C1033.9 173.07 1005.49 180 958.011 179L957.989 180C1005.51 181 1034.26 174.087 1051.2 158.928C1068.16 143.754 1073.16 120.434 1073.5 89.0052L1072.5 88.9944ZM988.939 5.49608C1020.94 9.42625 1041.49 15.8977 1054.22 28.5294C1066.92 41.1458 1071.91 60.0097 1072.5 89.0099L1073.5 88.9897C1072.91 59.9264 1067.91 40.7217 1054.92 27.8198C1041.94 14.9331 1021.08 8.43637 989.061 4.50354L988.939 5.49608ZM830 5.49981H989V4.49981H830V5.49981ZM956.5 122V71.9998H955.5V122H956.5ZM973 121.5H956V122.5H973V121.5ZM983.5 96.5033C983.553 104.241 982.965 109.462 981.328 113.266C979.707 117.032 977.036 119.458 972.779 121.551L973.221 122.448C977.625 120.283 980.506 117.706 982.247 113.661C983.972 109.653 984.554 104.253 984.5 96.4964L983.5 96.5033ZM972.729 72.4202C976.755 75.0123 979.361 77.4813 981.01 81.0359C982.668 84.6115 983.384 89.34 983.5 96.5079L984.5 96.4917C984.384 89.291 983.667 84.388 981.917 80.6151C980.157 76.8212 977.379 74.2245 973.271 71.5794L972.729 72.4202ZM956 72.4998H973V71.4998H956V72.4998ZM1344 5.49981H1430V4.49981H1344V5.49981ZM1344.5 259V4.99981H1343.5V259H1344.5ZM1430 258.5H1344V259.5H1430V258.5ZM1429.5 92.9998V259H1430.5V92.9998H1429.5ZM1364.86 74.4797L1429.86 93.4797L1430.14 92.5199L1365.14 73.5199L1364.86 74.4797ZM1430 73.4998H1365V74.4998H1430V73.4998ZM1429.5 4.99981V73.9998H1430.5V4.99981H1429.5ZM1557 4.49981H1463V5.49981H1557V4.49981ZM1608.45 107.778L1557.45 4.77794L1556.55 5.22167L1607.55 108.222L1608.45 107.778ZM1607.5 4.99981V108H1608.5V4.99981H1607.5ZM1928 4.49981H1608V5.49981H1928V4.49981ZM1901.47 74.182L1928.47 5.18201L1927.53 4.81761L1900.53 73.8176L1901.47 74.182ZM1841 74.4998H1901V73.4998H1841V74.4998ZM1841.5 259V73.9998H1840.5V259H1841.5ZM1755 259.5H1841V258.5H1755V259.5ZM1754.5 73.9998V259H1755.5V73.9998H1754.5ZM1643 74.4998H1755V73.4998H1643V74.4998ZM1693.13 86.5159L1643.13 73.5159L1642.87 74.4837L1692.87 87.4837L1693.13 86.5159ZM1693.5 259V86.9998H1692.5V259H1693.5ZM1602 259.5H1693V258.5H1602V259.5ZM1547.56 159.237L1601.56 259.237L1602.44 258.762L1548.44 158.762L1547.56 159.237ZM1548.5 259V159H1547.5V259H1548.5ZM1463 259.5H1548V258.5H1463V259.5ZM1462.5 4.99981V259H1463.5V4.99981H1462.5Z" fill="black"/>
</svg>
